<?xml version="1.0" encoding="UTF-8"?>
<!-- Generated by Pixelmator Pro 2.4.5 -->
<svg width="36" height="36" viewBox="0 0 36 36" xmlns="http://www.w3.org/2000/svg" xmlns:xlink="http://www.w3.org/1999/xlink">
    <path id="path1" fill="#ffffff" stroke="none" d="M 3.5 23.5 C 3.1 23.5 2.5 23.4 2 23 C 1.7 22.6 1.2 22 1.2 21 L 1.2 7.799999 C 1.2 7.5 1.2 6.799999 1.6 6.200001 C 2 5.700001 2.5 5.5 3.2 5.5 L 28.1 5.5 C 29.4 5.6 30.6 6.299999 30.6 7.700001 L 30.6 15.700001 L 28.1 15.700001 L 28.1 8 L 3.8 8 L 3.8 21 L 13.8 21 L 13.8 23.5 L 3.5 23.5 Z"/>
    <path id="path2" fill="#ffffff" stroke="none" d="M 13.5 16.5 L 7.9 10.9 L 10.6 10.9 C 11.2 10.9 11.6 10.5 11.6 9.9 C 11.6 9.299999 11.2 8.9 10.6 8.9 L 5.5 8.9 C 5.4 8.9 5.2 8.9 5.1 9 C 4.9 9.1 4.7 9.299999 4.6 9.5 C 4.5 9.6 4.5 9.799999 4.5 9.9 L 4.5 15.299999 C 4.5 15.9 4.9 16.299999 5.5 16.299999 C 6.1 16.299999 6.5 15.9 6.5 15.299999 L 6.5 12.299999 L 12.1 17.9 C 12.3 18.1 12.6 18.200001 12.8 18.200001 C 13 18.200001 13.3 18.1 13.5 17.9 C 13.9 17.5 13.9 16.9 13.5 16.5 Z M 31.9 29.200001 L 17.6 29.200001 C 16 29.200001 14.7 27.9 14.7 26.4 L 14.7 20.1 C 14.7 18.5 16 17.299999 17.6 17.299999 L 31.9 17.299999 C 33.5 17.299999 34.700001 18.6 34.700001 20.1 L 34.700001 26.4 C 34.799999 27.9 33.400002 29.200001 31.9 29.200001 Z M 17.6 19.799999 C 17.4 19.799999 17.200001 19.9 17.200001 20.1 L 17.200001 26.4 C 17.200001 26.6 17.299999 26.700001 17.6 26.700001 L 31.9 26.700001 C 32.099998 26.700001 32.200001 26.5 32.200001 26.4 L 32.200001 20.1 C 32.200001 19.9 32.099998 19.799999 31.9 19.799999 L 17.6 19.799999 Z"/>
</svg>
