<?xml version="1.0" encoding="UTF-8"?>
<!-- Generated by Pixelmator Pro 2.4.5 -->
<svg width="36" height="36" viewBox="0 0 36 36" xmlns="http://www.w3.org/2000/svg" xmlns:xlink="http://www.w3.org/1999/xlink">
    <path id="path1" fill="#ffffff" stroke="none" d="M 12.8 23.799999 L 3.7 23.799999 C 2.5 23.799999 1.2 22.9 1.2 21.299999 L 1.2 7.6 C 1.2 5.5 2.9 5.4 3.2 5.4 L 28.1 5.4 C 30.5 5.4 30.6 7.1 30.6 7.6 L 30.6 16.1 L 28.1 16.1 L 28.1 7.9 L 3.8 7.9 L 3.8 21.299999 L 12.8 21.299999 L 12.8 23.799999 Z"/>
    <path id="path2" fill="#ffffff" stroke="none" d="M 13.8 12.200001 C 13.8 11.6 13.4 11.200001 12.8 11.200001 C 12.2 11.200001 11.8 11.6 11.8 12.200001 L 11.8 14.799999 L 6.2 9.200001 C 5.8 8.799999 5.2 8.799999 4.8 9.200001 C 4.4 9.6 4.4 10.200001 4.8 10.6 L 10.4 16.200001 L 7.8 16.200001 C 7.2 16.200001 6.8 16.6 6.8 17.200001 C 6.8 17.799999 7.2 18.200001 7.8 18.200001 L 12.8 18.200001 C 12.9 18.200001 13.1 18.200001 13.2 18.1 C 13.4 18 13.6 17.799999 13.7 17.6 C 13.8 17.5 13.8 17.299999 13.8 17.200001 L 13.8 12.200001 Z M 31.9 29.799999 L 17.1 29.799999 C 15.5 29.799999 14.2 28.5 14.2 27 L 14.2 20.200001 C 14.2 18.6 15.5 17.4 17.1 17.4 L 31.9 17.4 C 33.5 17.4 34.700001 18.700001 34.700001 20.200001 L 34.700001 26.9 C 34.799999 28.4 33.5 29.799999 31.9 29.799999 Z M 17.1 19.700001 C 16.9 19.700001 16.700001 19.9 16.700001 20.1 L 16.700001 26.9 C 16.700001 27.1 16.799999 27.200001 17.1 27.200001 L 31.9 27.200001 C 32.099998 27.200001 32.200001 27 32.200001 26.700001 L 32.200001 20 C 32.200001 19.799999 32.099998 19.700001 31.9 19.700001 L 17.1 19.700001 Z"/>
</svg>
